<svg xmlns="http://www.w3.org/2000/svg" width="214" height="170" viewBox="0 0 214 170"><g><g ><g><path fill="#e83a57" d="M.406 87.401c-.203-2.287 1.881-4.776 4.168-4.98l201.607-17.88c2.287-.204 4.777 1.88 4.98 4.167l2.433 27.436c.203 2.287-1.88 4.777-4.168 4.98L7.82 119.006c-2.287.203-4.777-1.882-4.98-4.168z"/></g><g><g ><path fill="#fff" d="M11.705 100.453l-.005-.05c-.459-5.175 3.235-9.397 8.408-9.856 3.813-.338 6.554 1.291 8.25 3.81l-4.531 3.222c-.752-1.18-1.747-1.965-3.331-1.824-1.956.173-3.092 1.995-2.908 4.075l.005.05c.2 2.253 1.678 3.719 3.585 3.55 1.634-.146 2.469-1.117 3.073-2.469l5.02 2.275c-1.235 2.703-3.474 5.022-7.782 5.405-4.803.426-9.308-2.815-9.784-8.188z"/></g><g ><path fill="#fff" d="M42.184 97.748c.18 2.029-1.044 3.986-3.249 4.182-2.228.197-3.803-1.536-3.986-3.59l-.005-.051c-.18-2.029 1.045-3.983 3.25-4.179 2.226-.198 3.803 1.532 3.985 3.588l.005.05zm-13.072 1.16c.445 5.027 4.88 8.623 10.23 8.15 5.347-.475 9.127-4.85 8.68-9.877l-.004-.051c-.445-5.025-4.882-8.626-10.23-8.15-5.348.473-9.127 4.853-8.68 9.88l.004.049z"/></g><g ><path fill="#fff" d="M55.363 96.105l-.3-3.391 2.526-.225c1.336-.12 2.252.35 2.35 1.465l.004.048c.095 1.065-.691 1.759-2.08 1.881zm-4.987 9.6l5.795-.513-.44-4.952 1.238-.11 3.707 4.662 6.61-.587-4.557-5.532c2.014-1.206 3.17-3.078 2.946-5.606l-.005-.048c-.158-1.782-.817-3.022-1.948-3.97-1.32-1.104-3.345-1.698-6.415-1.425l-8.467.75z"/></g><g ><path fill="#fff" d="M76.745 98.576c-2.23.198-3.806-1.535-3.987-3.588l-.005-.052c-.18-2.029 1.045-3.985 3.25-4.18 2.226-.197 3.803 1.533 3.985 3.59l.005.05c.18 2.028-1.046 3.984-3.248 4.18zm.406 5.128c5.347-.474 9.126-4.85 8.68-9.876l-.004-.053c-.446-5.024-4.882-8.623-10.23-8.15-5.348.475-9.127 4.854-8.682 9.88l.004.05c.447 5.026 4.883 8.624 10.232 8.15z"/></g><g ><path fill="#fff" d="M86.647 85.021l5.423-.482 6.843 7.104-.679-7.65 5.744-.51 1.538 17.33-5.15.458-7.146-7.426.71 7.996-5.745.512z"/></g><g ><path fill="#fff" d="M114.205 93.555l1.212-4.347 1.958 4.067zm-7.971 7.195l6.192-.549.683-2.407 6.067-.537 1.122 2.247 6.288-.56-8.852-16.804-5.744.51z"/></g><g ><path fill="#fff" d="M122.029 81.883l6.486-.577 4.232 9.432 2.503-10.027 6.387-.569-5.482 18.079-5.547.493z"/></g><g ><path fill="#fff" d="M142.404 80.076l5.796-.515 1.537 17.331-5.795.513z"/></g><g ><path fill="#fff" d="M156.754 87.112l-.3-3.392 2.524-.224c1.337-.119 2.252.349 2.351 1.463l.005.048c.094 1.067-.693 1.76-2.08 1.884zm-4.988 9.6l5.794-.514-.44-4.952 1.238-.109 3.709 4.661 6.609-.586-4.557-5.533c2.013-1.204 3.17-3.078 2.946-5.603l-.004-.051c-.158-1.781-.817-3.021-1.95-3.968-1.32-1.105-3.345-1.699-6.414-1.426l-8.467.75z"/></g><g ><path fill="#fff" d="M168.63 87.38l-.847-9.556 5.893-.523.841 9.484c.191 2.153 1.388 2.972 2.947 2.834 1.559-.138 2.599-1.08 2.413-3.187l-.852-9.605 5.892-.522.837 9.433c.524 5.916-2.71 8.549-7.886 9.008-5.173.459-8.727-1.622-9.237-7.366z"/></g><g ><path fill="#fff" d="M186.62 91.001l2.77-3.963c2.008 1.268 4.213 1.67 6.244 1.491 1.04-.093 1.461-.403 1.42-.874l-.004-.05c-.045-.494-.613-.719-2.503-.925-3.958-.448-7.472-1.259-7.797-4.923l-.005-.05c-.293-3.293 2.057-6.072 6.835-6.495 3.342-.298 5.888.277 8.033 1.683l-2.473 4.162c-1.74-1.043-3.743-1.39-5.352-1.248-.867.076-1.237.408-1.2.83l.005.049c.042.471.54.727 2.4.91 4.506.424 7.59 1.45 7.9 4.94l.005.05c.323 3.64-2.476 6.132-7.13 6.544-3.516.313-6.773-.395-9.147-2.13z"/></g></g><g><g ><g><path fill="#e83a57" d="M47.14 69.13l-.2-2.286.937-.082c.908-.082 1.485.252 1.55 1l.003.029c.065.731-.487 1.18-1.365 1.257zm-2.963 5.536l3.429-.303-.247-2.786 1.113-.099c2.77-.246 4.542-1.733 4.323-4.208l-.003-.03c-.216-2.431-2.184-3.484-4.91-3.242l-4.614.41z"/></g><g><path fill="#e83a57" d="M57.068 68.102l-.178-2.007 1.496-.132c.79-.07 1.331.207 1.39.865l.002.028c.055.63-.408 1.042-1.23 1.115zm-2.952 5.682l3.43-.303-.26-2.933.732-.065 2.193 2.76 3.913-.345-2.697-3.277c1.192-.713 1.877-1.82 1.743-3.315l-.003-.03c-.093-1.053-.482-1.787-1.153-2.35-.781-.653-1.98-1.005-3.796-.844l-5.012.445z"/></g><g><path fill="#e83a57" d="M71.647 67.09c.107 1.201-.617 2.358-1.922 2.474-1.317.116-2.249-.908-2.358-2.125l-.003-.028c-.107-1.203.617-2.359 1.922-2.475 1.32-.116 2.25.908 2.358 2.123l.003.031zm-7.736.687c.264 2.974 2.89 5.104 6.054 4.823 3.165-.28 5.402-2.872 5.138-5.846l-.003-.03c-.263-2.974-2.89-5.105-6.054-4.823-3.165.28-5.401 2.872-5.138 5.845l.003.03z"/></g><g><path fill="#e83a57" d="M78.033 64.25l-3.018.266-.257-2.902 9.465-.838.257 2.901-3.019.268.653 7.356-3.429.304z"/></g><g><path fill="#e83a57" d="M88.073 59.844l2.448-.218 2.194-1.893-3.453-.462zm-2.16 11.121l8.822-.783-.25-2.814-5.451.483-.1-1.114 5.013-.443-.22-2.477-5.01.443-.094-1.038 5.379-.478-.25-2.814-8.748.776z"/></g><g><path fill="#e83a57" d="M94.828 65.033l-.002-.029c-.273-3.063 1.944-5.563 5.182-5.85 1.757-.156 3.231.304 4.43 1.172l-1.713 2.486c-.726-.511-1.5-.767-2.352-.692-1.333.119-2.208 1.227-2.086 2.622l.003.03c.129 1.449 1.228 2.355 2.665 2.228.585-.05.9-.165 1.151-.338l-.091-1.026-1.758.157-.195-2.2 4.967-.44.422 4.748c-1.034 1.007-2.531 1.776-4.393 1.94-3.194.286-5.948-1.627-6.23-4.808z"/></g><g><path fill="#e83a57" d="M105.659 58.874l8.747-.775.25 2.813-5.377.478.092 1.04 5.012-.445.219 2.475-5.011.445.097 1.114 5.452-.483.25 2.814-8.822.782z"/></g><g><path fill="#e83a57" d="M118.287 60.678l-3.017.268-.258-2.901 9.466-.839.257 2.902-3.018.266.653 7.356-3.43.304z"/></g><g><path fill="#e83a57" d="M125.259 57.137l8.748-.777.25 2.813-5.379.478.093 1.04 5.011-.444.22 2.476-5.012.443.099 1.114 5.45-.482.25 2.813-8.82.783z"/></g><g><path fill="#e83a57" d="M142.804 62.904l-.38-4.276.573-.053c1.566-.138 2.636.417 2.766 1.897l.003.03c.132 1.48-.823 2.211-2.39 2.35zm-3.163 3.294l3.81-.337c4.146-.369 6.037-2.708 5.767-5.74l-.003-.03c-.27-3.033-2.483-4.86-6.556-4.498l-3.928.347z"/></g><g><path fill="#e83a57" d="M149.71 54.967l8.749-.777.25 2.815-5.377.477.091 1.039 5.012-.444.219 2.477-5.011.443.098 1.115 5.45-.484.25 2.815-8.82.781z"/></g><g><path fill="#e83a57" d="M159.458 54.103l3.43-.305.651 7.327 4.82-.428.26 2.93-8.25.734z"/></g></g></g><g><g ><path fill="#e83a57" d="M153.547 42.595c-11.412-12.545-27.87-20.42-46.165-20.42-22.255 0-41.777 11.661-52.82 29.2z"/></g><g ><path fill="#ffbc00" d="M62.602 127.984c11.339 11.693 27.205 18.971 44.78 18.971 21.547 0 40.542-10.924 51.75-27.533z"/></g></g><g><g ><path fill="#6f6f6e" d="M88.313 3.165l-.308-1.33A85.695 85.695 0 0 1 99.7-.044l.122 1.358c-3.87.35-7.743.972-11.51 1.85zm43.245 1.358a83.614 83.614 0 0 0-11.375-2.584l.208-1.347c3.892.6 7.782 1.483 11.562 2.626zM59.224 16.217l-.787-1.113a84.387 84.387 0 0 1 18.244-9.78l.491 1.272a83.059 83.059 0 0 0-17.948 9.62zm100.537 3.205a83.892 83.892 0 0 0-17.304-10.749l.572-1.238a85.32 85.32 0 0 1 17.587 10.924zM42.269 32.136l-1.061-.854a85.783 85.783 0 0 1 8.053-8.689l.933.994a84.417 84.417 0 0 0-7.925 8.55zm133.423 4.228a84.383 84.383 0 0 0-7.374-9.023l.993-.935a85.851 85.851 0 0 1 7.494 9.17zM27.352 60.331l-1.306-.397a84.895 84.895 0 0 1 4.227-11.073l1.237.574a83.674 83.674 0 0 0-4.159 10.896zm158.827-3.718a83.415 83.415 0 0 0-.854-2.305l1.271-.493c.343.884.671 1.776.984 2.675zm-1.747 63.76zm-1.235-.576a83.57 83.57 0 0 0 4.173-10.89l1.305.397a84.827 84.827 0 0 1-4.243 11.068zM45.365 142.64a85.389 85.389 0 0 1-7.482-9.182l1.115-.784a83.991 83.991 0 0 0 7.362 9.033zm120.045 3.975l-.931-.996a84.08 84.08 0 0 0 7.935-8.539l1.06.857a85.792 85.792 0 0 1-8.064 8.678zm-93.79 15.03A85.268 85.268 0 0 1 54.05 150.7l.855-1.063a83.868 83.868 0 0 0 17.29 10.772zm66.345 2.202l-.49-1.272a83.174 83.174 0 0 0 17.963-9.599l.784 1.116a84.616 84.616 0 0 1-18.257 9.755zm-43.715 4.675a84.861 84.861 0 0 1-11.558-2.643l.396-1.305a83.372 83.372 0 0 0 11.37 2.6zm20.69.662zm-.121-1.358a84.532 84.532 0 0 0 11.511-1.835l.309 1.33a85.8 85.8 0 0 1-11.7 1.863z"/></g></g><g><g ><path fill="#6f6f6e" d="M56.648 145.31a79.586 79.586 0 0 0 14.777 9.772l.62-1.216a78.178 78.178 0 0 1-14.524-9.601z"/></g><g ><path fill="#6f6f6e" d="M67.994 15.894l.679 1.183a77.259 77.259 0 0 1 14.59-6.477l-.422-1.297a78.755 78.755 0 0 0-14.847 6.591z"/></g><g ><path fill="#6f6f6e" d="M36.83 48.67l1.216.62a78.275 78.275 0 0 1 9.59-14.53l-1.045-.874a79.648 79.648 0 0 0-9.76 14.785z"/></g><g ><path fill="#6f6f6e" d="M114.248 162.04c-9.214.816-18.484-.002-27.313-2.41l-.358 1.315a78.727 78.727 0 0 0 20.707 2.767c2.35 0 4.732-.106 7.108-.318l-.02-.682z"/></g><g opacity="-1"><path fill="#6f6f6e" d="M30.879 70.396c.386-2.089.859-4.163 1.415-6.213l-1.316-.357a79.02 79.02 0 0 0-1.511 6.718z"/></g><g opacity="-1"><path fill="#6f6f6e" d="M167.034 134.467l1.047.875a79.573 79.573 0 0 0 9.783-14.77l-1.214-.62a78.232 78.232 0 0 1-9.616 14.515z"/></g><g opacity="-1"><path fill="#6f6f6e" d="M100.375 5.733l-.178.016.114 1.357.194-.017a77.83 77.83 0 0 1 27.192 2.376l.358-1.316a79.017 79.017 0 0 0-27.68-2.416z"/></g><g opacity="-1"><path fill="#6f6f6e" d="M181.585 57.002a78.534 78.534 0 0 0-5.57-11.874l-1.183.679a77.235 77.235 0 0 1 5.347 11.33z"/></g><g opacity="-1"><path fill="#6f6f6e" d="M131.37 158.569l.42 1.297a78.798 78.798 0 0 0 14.858-6.568l-.677-1.183a77.596 77.596 0 0 1-14.6 6.454z"/></g><g opacity="-1"><path fill="#6f6f6e" d="M142.597 15.205a78.33 78.33 0 0 1 14.538 9.58l.873-1.05a79.587 79.587 0 0 0-14.794-9.744z"/></g></g></g></g></svg>