<svg baseProfile="tiny" xmlns="http://www.w3.org/2000/svg" viewBox="0 0 1080 1080"><path fill="#900" d="M1036.6 335.4c-12.4-14.2-28-21.4-46.7-17.4-18.2 3.8-27.9 17-33 34.3-1.6 5.9-4.4 15.3-8.2 16.1-26.2 5.7-53 13-79.3 12.1-8.5-.2-16.3-23.1-24.3-35.7-2.8-4.3-5.2-8.7-8-13-18.2-27.8-18.5-28 3.6-53.2 8.6-9.8 15-21.8 33.5-17.6 31.9 7 52.1-16.9 39-46.8a87.7 87.7 0 0 0-33.7-37.7c-27.5-16.3-52.1 1.5-51.7 33.7 0 7-2.2 16.2-6.9 20.5a165 165 0 0 1-34 23.6 21.2 21.2 0 0 1-17.4-.2c-55.6-30.3-55.5-30.5-37-90.6 1-3.5 2.3-7 3-10.5 3-14.2 10.3-20.9 26-23.4 32.3-5 46-31.4 34-59.7-14.7-34.3-63.1-55-97.7-41.7C672.3 38 659 64 674.4 86c15.7 22.5 7.7 38.2-2.8 56.7-23.9 42.2-23.7 42.2-71 34.5-5.7-1-11.6-3-17.3-2.3-26.9 2.8-34.6-12-36-35.6-1-16.5-5-30.4 13.4-43.1 19.6-13.5 13.8-45-10-52.7a95 95 0 0 0-56.5-1c-30.5 10.4-32.2 40.7-7.5 61.6 6 5.1 10.7 14.8 11.4 22.8 1.1 12.1-.8 24.8-3.3 36.8-1 5-6 11.5-10.7 13.2-62 20.9-62.1 20.7-97.3-35-.3-.7-.8-1.3-1.2-1.9-9.1-11.8-11-22-2.6-37.1 18.7-33.8-.8-66.2-39.3-67-34-.7-60.7 13.8-76.8 44.6-14.4 27.6-1.7 58.7 28.9 61.6 24.4 2.3 31.5 15.1 37.3 33.8 3.5 11.1 6.9 22.4 11.6 33 4.5 10 5 17.8-.3 24.6 1.5 10.7 2.3 24.8 2.5 29.4 0 1-22.3 19.7-17 29 1.6 2.7 6 1.5 9.7 2.3-.9 1.5-1.4 3.5-2.2 3.7-4 .8-3.7 4-4.3 6.8l-.3 1.5c-3 9.4-2.7 18.3 2.4 27 1.6 2.8 2.7 6 3.7 9 1 2.5 2 4.3 5.2 4 .9-.1 2.1.6 2.7 1.4 2.4 3.5 5.4 2.7 8.8 1.6 4.8-1.6 9.5-4.7 15-2.2l8-7.3c.5-.4.5-1.2.8-1.8 2.2-4.4 1.6-11 9-11.6 5.1-.5 10-3.6 15.5-2 1.5.5 3 .5 5.6.9l-4.8 7.2c-1.4 2.2-3.2 3.8-2 7.3.6 2-1.8 5.2-3.1 8.4-1.8-4.4-5.1-2-6-1l-5 5.7c-.7 4.4-1.2 8.8-1.7 12.7l7 3.1c6.2-.8 12.4-1.3 18.4-2.6 6.9-1.6 12.3 1.7 18 4.1.8.3 1.3 1.1 2.5 2.2-.8 1-1.2 1.2 0 1.5 0 2.6.3 4.7-.2 6.7-1.3 5.8-3.3 11.5-4.5 17.3-.4 2.1 0 4.8 1 6.8 1.6 3.4 4 6.3 6 9.5h-.6l2.8 3c1.6 1.6 2.7 4 5.5 1.7.1-.1.6 0 .8.1 5.1 4 8.9-.1 12.9-2.3 7.3-4.1 19.8 1 22.4 9l1 2.4c.5-.6.8-1.1 1-1.7 1.7-5 6-6.2 9.2-9 .9-.9 1.7-2.4 1.7-3.5-.1-5.8 4-9.5 9.5-10.6 6.8-1.4 14.3-2 19.3-8 2.7-3.1 5.3-2.3 7.6.7l-8.7 6v.1l2.8-.7 2.6 4.2c4.6-2.7 11.2-2.7 12.3-10.4 1.8 5.9 6.7 6.3 11.2 7.7 1.1.3 2.6 1.5 2.9 2.6.9 3 2.7 3.3 5.3 2.9 6.4-1 12.4-.7 18.4 2.6 2.6 1.3 6.9-.6 10.3-1.1v-1.9l14.6.1.2.6-5.2 2c1.8 2.8 3.3 4.8 7.2 4.4a9 9 0 0 1 6.5 2.6c1.5 1.6 1.7 4.3 2.5 7-.3-.2 0 0 .2 0l5.8 1.9-1 1.3c3.4-.1 9-.2 9.6.2.9.6 15.7 3.8 17.5 4.7 1.7.9 1.4.6 8 4.4a56 56 0 0 1 12.9 13l.3-.6c5.7 3.9 12.3 5.5 15.7 11.7.3.5 1.7.3 2.4.8 1 .5 2.2 1.2 2.5 2.1.9 2.9 1.6 5.8 2 8.7.7 5 2 9.1 7.1 10.2 1.3 5.3-1.8 8-5 10.7-1 .7-1.8 1.6-2.6 2.4-2.4 2.2-3.9 4.7-1.5 7.6l4.6-1c1-4.7 4.1-5.2 8.6-3.7 2.3.9 5 1 8 1.7l-3.4 8.8 3.1 1.8 2.3-7.8c8.5.6 14.8 4.5 21.6 9l1.7-1.1c4.2 4.7-.3 9.5.4 14.8 2.2-1.7 4-3 5.7-4.5 2.3-2.2 4.6-3 7.1-.7 3.4 3 7.5 3.3 11.7 3 9-.8 14.6 4.6 19.9 10.8l2 2.8c2.2 4.2 5.3 6.7 10.3 7 3.8.3 5.6 2.6 5.8 6.5.3 4.1 1 8.2 1 12.3a26 26 0 0 1-6.1 15.7c-6.2 8.1-12 16.6-18.1 24.8-1.3 1.7-2.5 4.6-5.9 1.8l-6.7 30.4c-1 4.8-1.6 9.8-5.6 13.4-.3.3-.6.9-.7 1.4-1.2 8.7-7.5 14.5-12.5 21.1-.8 1.2-1 2.8-1.7 4.1-.6 1.2-1.4 2.4-2.3 3.2-1.9 1.8-3.7 4-6 5-1.8.8-4.3.2-6.5.2-.8 0-1.5-.2-2.3-.1-.9 0-1.9.8-2.5.5-3.6-1.8-6 .2-8.2 2.4-2.3 2.1-5 2.5-8 3.3-4.2 1.1-8 3.8-11.8 6.2a22.1 22.1 0 0 0-5.7 5.2c-2.4 3-4.6 5.8-4.2 10.6.6 5.6-1.5 11.4-7 14.5-4 2.3-6.5 6-9.1 9.5l-10.5 10-9.6 9a43.3 43.3 0 0 1-13 11.6c-4.8 2.4-10.9 3-16.6 1-1.2-.5-2.3-1.1-3.6-1.5-3.5-1.2-5.6-3.2-3.9-7.6-4 4.3-4 5.1 0 8.4l4.2 3.5c-.7 1.7-1.4 3-2 4.7.7.7 2 1.2 2.1 2 .5 1.9 1.3 4.6.5 5.6a33 33 0 0 1-9.6 8.1c-8.4 4-17.5 5.2-27 3.6-1 3.6-2 7.5-3.2 11.3-.3 1-1.5 2-2.5 2.4-4.6 1.6-9.1 1.1-14.5-2.5 0 4-.6 7 .2 9.8.2.9 3.8.8 6.2 1.2.7 2 .7 2-6.6 2.8l2.8.9-.5 1.2a12.6 12.6 0 0 0-8.4 10.3c0 .8-1.6 1.5-2.6 1.8-1.5.6-3.5.5-4.8 1.5-2 1.4-5 3.7-4.7 5.3.2 2 3.1 3.8 5 5.6.9 1 3 1.7 2.9 2.3-.3 1.6-1 3.5-2.2 4.5-1.9 1.5-4.2 2.5-6.4 3.7-.8.4-1.7.8-2.3 1.4L523.5 871l3.7 6.2-11-1.6 2.4 1.3-8.2 8-3-1.6 3.5-3.6-1-.3.3-.2h-.6-.3.4v.3l-4.6 3c-4.8-1.8-5-6.2-5.7-10.2-.6-3.4-.9-7-1.4-11.3l4.2 2-.2-2.7-4.4-.9.9-2.7-4.1-2.4.8-1.2 3.4 2.2-.1-2 3.7-1.9-4-2.3c1-2.3 1.7-4.7-2.8-4.6-.1 0-.4-1.7-.4-2.5 0-1.1.3-2.1.5-3.5l7 3.4 1-6.8c.3-1.7 1.3-3.3 1.3-5 0-2.2 2.5-3.6 1.3-6.6-.8-1.8 1.5-4.8 2.4-7.3l1 .4-1.9-5.5c-1-.8-4.6 2.4-5.7-1.5-.3-1.2-.9-3-.3-3.8 4.6-6 4-12.5 1.9-19.1-.7-2.3-.8-4.3 2.2-5.2.7-.3 1.2-1.3 1.6-2.1.8-1.6 1.4-3.4 2.3-5a58.2 58.2 0 0 0 8-36c0-.8-.1-1.7.2-2.3 4.5-9.3 2.4-20.2 7.3-29.4 3.3-6.3 4-13.1 3.4-20.4-.4-5 1.3-10.4 2.9-15.5 2.6-8.4 1.2-17 .8-25.4 0-1.4-.1-2.4.3-3.3a227 227 0 0 0-21.7-15.8c-7-4.1-15.1-6.5-20.5-13.1-2.7-3.3-6.3-6.3-4.3-11.6.3-.8-.7-2.4-1.4-3.3-8.4-10.2-13.6-22-18.6-34a41.2 41.2 0 0 0-17.3-21.8c-.6-.4-1.1-1-.6-1.7-.1-2.2.2-4.5-.4-6.5-2.3-8.1-2.4-8.1 5.2-12.2l1.3 1.7 4-12c-.7 0-1.3-.2-2-.4l-.8 4.7c-1.7-1.3-3.6-2.5-5.3-4-.7-.6-1.5-1.7-1.4-2.5.4-4.1-2.6-9.3 3.6-11.7-1-4.5 6.9-6.6 2.6-12.1l5.4-1.5c2.4-.5 3.6-1.1 4.3-4.2.6-2.5 4.1-4.3 4-7.8 0-.1.9-.5 1.4-.5 5.1-.6 7-4.9 9.2-8.6.5-.8 0-3-.9-3.6-2-1.4-2.1-3-1.8-5 .6-3.1.5-6.3 1.3-9.3 1.4-4.7-1.1-8-3.3-11.5-2.5-2.3-5.5-5.5-3.3-8.3l-6.9-5.8-10.7 5.8 2.9 5.5c-4.2 4.8-6 4.3-8.5-2l-3.4 1c-1.4-5.6-6.3-4-10.2-5l-1.3-.5-.1.8-4.6-1.3c.6-6.9-6.4-8-9.3-11.8l-3.3 2.9c-1.3-1.4-3.6-2.9-3.6-4.3 0-5.8-2-10.2-6.7-13.7-2.7-2-4.9-4.5-7.8-7.3l-8.2-3c-7.8-1.8-16-2.5-22.8-7.6l-3.7-3c-4-3-7.6-6-11.6-8.6-1.3-.9-3.5-1.6-4.8-1.1-10.2 4-20 2.5-29.5-2.2-3.4-1.6-7.2-2.3-10.6-4-3-1.3-5.6-3.5-8.5-5-2.4-1.4-5-2.6-7.7-3.1-3.2-.6-5.5-1.8-7.4-4.4a26.3 26.3 0 0 0-4.6-5.3c-3.9-3-4.4-6.9-1.7-10.5 4.5-6.1.6-11-2-16-1.6-3.2-5.1-5.7-6.5-9-1.5-3.8-4.1-6-7.7-7.8l2.4-4.2c-1.1-3.9-7.8-4.9-5.6-9.5l-6.8-8c.4-4.5.3 1.1.3-3.4 0-1-2.2-.4-3.5-1.2l-2-1.2c-2-1.4-1.6-.7-2.4 1.6l-.5 1.3 3.5 10c.2.7 0 1.6.5 2.2 4.4 5.4 3.9 11.8 3.7 18.2-.1 2-.2 4 2.3 4.7 2.8.8 3.1 3.2 2.6 5.3-.4 1.5-2 2.7-2.5 3.4-3-3.6-5.4-6.8-8.2-9.6-2-2-3-3.7-1.6-6.4 1.9-4 1.2-7.5-2.2-10.7l-3 1.2-5.1-6c4.8.9 4.8-3 6.4-5 .4-.5-.2-2.4-.9-3-6.3-5.8-4.2-13-3.6-19.9-5.4-6-8.3-13.7-6.5-25.9 2.7-18.1-16.3-30.4-36-28a56 56 0 0 0-46.4 46.5c-2 12.2.4 29.4 8 37.6 6.5 7 23.4 4.4 35.7 5.8 5.8.8 13.6-1 17.4 2a207 207 0 0 1 30.2 31.3 23.2 23.2 0 0 1 3.3 19.2c-21.4 55.7-21.7 55.6-80.1 51l-8.7-.3c-15.5-.5-26.2-4.2-32-22.3C109 343.9 79.3 335 53 353c-30.1 20.5-41.7 70.7-23.5 102 13.7 23.5 41.5 32.3 61 14 20.1-19 37.8-15.6 58.6-6.5 10.7 4.7 22.5 7.3 32.2 13.4 6 3.7 12.4 12 12.7 18.6 1.6 25.3.8 50.8.9 79-8.6 3-17.5 6.2-26.2 9.7-17.3 6.8-32 11.1-49.2-5-16.7-15.5-42.3-6.4-47.5 17.4a92.3 92.3 0 0 0 5.5 53.8c4.6 10.6 22 21.3 33.8 21.5 10 .2 20.4-14.6 30.6-22.7 5.7-4.5 10.8-11.2 17.2-12.6 12.6-2.9 26-3.6 39-3.4 5.3.1 12.9 3.6 15.5 8 31.7 52.6 30.6 58.6-15.5 100.3-2.1 2-4.6 3.7-6.5 5.8-9.2 10.4-18.1 12-32.3 6.7-32.5-12.7-59.8 6.6-60.6 40.3-1 33.8 26.1 69.7 58.8 78.2 29.9 7.8 57.3-10.5 54.8-41-1.9-22.3 7.4-31.7 24.2-39.8a146 146 0 0 0 24.6-14c19.1-14.7 34.5-12.4 50 6.3 7.6 9.3 20 14.7 28.5 23.5 6.8 6.8 17.3 18.9 15.1 24-7.6 18.4-4 45.1-33.6 50.1-29.7 5-41.1 33-20.9 55a89.5 89.5 0 0 0 47.5 26.4c31 5.4 46.4-18.9 36.2-48.7a45 45 0 0 1 2.8-29.2c4-9.7 11.7-18.5 19.5-26 4.4-4.1 12.7-7.6 18.3-6.5 61.7 12.4 62 13 64.6 75.9 0 1.4 0 2.9.2 4.3 2.2 15.8-2 26-17.7 34.8-29.2 16.5-30.5 48-5.5 71 23.8 21.8 68.1 24.5 95.9 5.7 26.2-17.6 30.9-48.3 6.3-67.8-19-15.1-20.5-30.6-15.4-50.8a233 233 0 0 0 6-32.2c1.7-15.4 8.7-22.1 25-23.5 19.4-1.7 38.8-6.1 57.7-11.3 40.6-11 40.7-11.6 60.4 26.9 5 9.6 12.7 17.7 3.8 31.5-18.8 29-2 57.4 32.6 54.6 14.9-1.1 31.7-8 42.8-17.7 8.8-7.7 15-24.7 13-36-1.7-9.6-16.5-17-26-25-5-4.3-14.1-6.6-15.8-11.7-6.3-20-15-41.1-13.6-61.2.8-10.7 20.4-20.2 31.4-30.2 1.1-1 2.4-1.8 3.4-2.8 44.8-42 44.6-41.6 97.7-11.8 13.6 7.8 21 15.8 21.2 33.4.2 32.2 27.4 49.8 57.7 40.4 33.5-10.5 59.1-51.4 53.8-85.9-4.4-28.1-27.6-45.2-53.5-34.2-23.5 10-38.4 1.8-54-12.8-6.8-6.5-13.6-13.5-21.7-18.2-16.9-10-17.5-22-9.3-38.3 6.4-13 9.6-27.4 15-41 3.8-9.6.1-27 18-24.2 19.7 3 43.8-11.7 58 15.2 12.8 24 37 26.6 56 7.4 15.3-15.6 19.8-46.6 9.9-67.5-11.1-23.3-36-29.7-53.6-11.2-11.3 11.9-21.4 12.2-34.6 8-9.7-3-20-4.4-29.2-8.6a21.8 21.8 0 0 1-11-13.6c-10.6-63.2-10.4-63.3 49.6-88.2 2-.9 4.1-1.6 6-2.7 12.8-6.7 22.7-6 34.9 4.8 27.2 24 61.7 12.4 71.4-22.6 8.3-29.7.6-56.1-19.3-79.1zm-557.8 1c-.1-.6-.2-.9-.1-1l2.5-4c-1.6-.4-3.3-.8-4.7-1.6-1.7-.8-3.4-1.7-4.5-3.1a9.3 9.3 0 0 0-6.6-4c-5.7-.8-11.3-2.1-16.9-3.3-1.2-.2-2.3-.8-3.7-1.4l2.6-2c-4.3-.7-7.6-.8-11 1.5-3.1 2.1-6.2 5.2-10.9 3.8 1-.7 2.4-1.2 2.7-2 1.5-4.8 5.5-4.9 9.3-5.3 6.8-.8 13.5-3.6 20.4-1.3a99 99 0 0 1 11 4.7c7.1 3.3 13.3 8.7 21.7 9.1.3 0 1 .2 1 .4 2 5.7 8.3 3.9 12.4 6.7-8.3 4.5-17 1.8-25.2 2.8zm66.2 12.7c-1 .2-2-.2-3.1-.4-6-.8-12.3-3.4-15.9 4.7l-3.6-3.8c-6.5-2.7-13.6 3.5-19.3-3.5l13.3.1-2.2-7-2.6-1.2-.1-1c1.9-.4 3.8-1.2 5.6-1 5.7.2 11.4.9 17 1.4 1.8.2 5.6 3.4 7 5.2.6.8 2 1 3 1.5l4.7 1.9.5 1.4c-1.5.6-2.9 1.3-4.3 1.7zm15 2.4c-.8 0-1.7-1.3-2.5-2l.6-1 11.5.2c-2.4 4.7-6.5 2.5-9.7 2.8zm-62.3 468.8c.4-1.8.8-3.6 1.6-5.2.4-1 1.7-1.5 2.6-2.3.4 1 1 1.8 1.3 2.8.2.6 0 1.3 0 2l.9.5c-1 1.6-1.8 3.8-3.3 4.7-1.8 1.1-3.6.2-3-2.5zm28.6 70.9c-.8 0-1.6-1.2-2.5-1.9-1 .5-2 1.5-2.9 1.5-3.6-.2-7.3-.7-11-1.1v-1l4.7-.5-.2-3.9h1l2.6 4.4 1.8-.4c-4-2.2-.7-3.2-.3-4l-3.5-3.5c2-.8 4.1-1.9 6.3-2.5 2.4-.6 2.8 1 2.7 3 .3 0 .7-.2.8 0 2.8 5 8.3 5.5 12.8 7.7.2 0 .3.4 1 1.7-4.8.2-9 .5-13.3.5z"/></svg>